<?xml version="1.0" encoding="UTF-8"?>
<svg xmlns="http://www.w3.org/2000/svg" width="40px" height="40px" viewBox="0 0 40 40" version="1.1">
<g id="surface1">
<path style=" stroke:none;fill-rule:nonzero;fill:rgb(0%,0%,0%);fill-opacity:1;" d="M 12.800781 30.9375 L 7.996094 11.992188 L 10.585938 11.992188 L 12.835938 21.578125 C 13.398438 23.9375 13.902344 26.300781 14.242188 28.125 L 14.296875 28.125 C 14.605469 26.242188 15.195312 23.992188 15.84375 21.546875 L 18.367188 11.992188 L 20.925781 11.992188 L 23.234375 21.621094 C 23.769531 23.875 24.277344 26.125 24.558594 28.125 L 24.613281 28.125 C 25.007812 26.042969 25.542969 23.929688 26.132812 21.566406 L 28.640625 11.992188 L 31.136719 11.992188 L 25.769531 30.9375 L 23.207031 30.9375 L 20.816406 21.070312 C 20.226562 18.652344 19.832031 16.796875 19.578125 14.882812 L 19.523438 14.882812 C 19.1875 16.765625 18.765625 18.621094 18.0625 21.070312 L 15.363281 30.9375 Z M 12.800781 30.9375 "/>
<path style=" stroke:none;fill-rule:nonzero;fill:rgb(0%,0%,0%);fill-opacity:1;" d="M 28.632812 11.953125 L 37.03125 11.953125 L 37.03125 14.179688 L 28.632812 14.179688 Z M 28.632812 11.953125 "/>
<path style=" stroke:none;fill-rule:nonzero;fill:rgb(0%,0%,0%);fill-opacity:1;" d="M 5.664062 28.710938 L 14.0625 28.710938 L 14.0625 30.9375 L 5.664062 30.9375 Z M 5.664062 28.710938 "/>
</g>
</svg>
