<?xml version="1.0" encoding="UTF-8"?>
<svg xmlns="http://www.w3.org/2000/svg" xmlns:xlink="http://www.w3.org/1999/xlink" width="16px" height="16px" viewBox="0 0 16 16" version="1.1">
<g id="surface1">
<path style=" stroke:none;fill-rule:nonzero;fill:rgb(100%,100%,100%);fill-opacity:1;" d="M 5.121094 12.375 L 3.199219 4.796875 L 4.234375 4.796875 L 5.132812 8.632812 C 5.359375 9.574219 5.5625 10.519531 5.695312 11.25 L 5.71875 11.25 C 5.84375 10.496094 6.078125 9.597656 6.335938 8.617188 L 7.347656 4.796875 L 8.371094 4.796875 L 9.292969 8.648438 C 9.507812 9.550781 9.710938 10.449219 9.824219 11.25 L 9.84375 11.25 C 10.003906 10.417969 10.21875 9.570312 10.453125 8.625 L 11.457031 4.796875 L 12.453125 4.796875 L 10.308594 12.375 L 9.28125 12.375 L 8.328125 8.429688 C 8.089844 7.460938 7.933594 6.71875 7.832031 5.953125 L 7.808594 5.953125 C 7.675781 6.707031 7.507812 7.449219 7.226562 8.429688 L 6.144531 12.375 Z M 5.121094 12.375 "/>
<path style=" stroke:none;fill-rule:nonzero;fill:rgb(100%,100%,100%);fill-opacity:1;" d="M 11.453125 4.78125 L 14.8125 4.78125 L 14.8125 5.671875 L 11.453125 5.671875 Z M 11.453125 4.78125 "/>
<path style=" stroke:none;fill-rule:nonzero;fill:rgb(100%,100%,100%);fill-opacity:1;" d="M 2.265625 11.484375 L 5.625 11.484375 L 5.625 12.375 L 2.265625 12.375 Z M 2.265625 11.484375 "/>
</g>
</svg>
